<svg width="34" height="35" viewBox="0 0 34 35" fill="none" xmlns="http://www.w3.org/2000/svg">
<g id="material-symbols-light:play-arrow-rounded">
<path id="vector" d="M12.75 22.7615V12.2399C12.75 11.8923 12.8652 11.6147 13.0957 11.4069C13.3252 11.1991 13.5934 11.0952 13.9003 11.0952C13.9967 11.0952 14.0972 11.1084 14.2021 11.1349C14.306 11.1604 14.4056 11.1996 14.501 11.2525L22.7786 16.5409C22.9543 16.6637 23.0865 16.8044 23.1752 16.963C23.2631 17.1208 23.307 17.2997 23.307 17.5C23.307 17.7002 23.2631 17.8792 23.1752 18.0369C23.0874 18.1946 22.9552 18.3353 22.7786 18.459L14.501 23.7475C14.4056 23.7994 14.305 23.8386 14.1992 23.865C14.0935 23.8915 13.9929 23.9047 13.8975 23.9047C13.5896 23.9047 13.3214 23.8008 13.0928 23.593C12.8643 23.3853 12.75 23.1081 12.75 22.7615Z" fill="#CCCCFF"/>
</g>
</svg>
