<svg width="250" height="250" viewBox="0 0 250 250" fill="none" xmlns="http://www.w3.org/2000/svg">
<g id="material-symbols-light:music-note">
<path id="vector" d="M104.77 144.333H104.771C108.703 144.333 112.429 145.03 115.952 146.423C119.473 147.82 122.569 149.914 125.243 152.71L126.104 153.611V152.364V44.1665H175.979V69.6144H136.021H135.521V70.1144V175.083C135.521 183.54 132.512 190.767 126.48 196.792C120.448 202.817 113.22 205.826 104.77 205.833C96.3071 205.833 89.0766 202.824 83.0517 196.792C77.0264 190.76 74.0208 183.533 74.0208 175.083C74.0208 166.634 77.0264 159.403 83.0519 153.363C89.0767 147.325 96.307 144.319 104.77 144.333Z" stroke="#CCCCFF"/>
</g>
</svg>
