<svg width="24" height="25" viewBox="0 0 24 25" fill="none" xmlns="http://www.w3.org/2000/svg">
<g id="material-symbols-light:add-circle-outline-rounded">
<path id="vector" d="M11.5 13V16.5C11.5 16.642 11.548 16.7607 11.644 16.856C11.74 16.9513 11.859 16.9993 12.001 17C12.143 17.0007 12.2617 16.9527 12.357 16.856C12.4523 16.7593 12.5 16.6407 12.5 16.5V13H16C16.142 13 16.2607 12.952 16.356 12.856C16.4513 12.76 16.4993 12.641 16.5 12.499C16.5007 12.357 16.4527 12.2383 16.356 12.143C16.2593 12.0477 16.1407 12 16 12H12.5V8.5C12.5 8.358 12.452 8.23933 12.356 8.144C12.26 8.04867 12.141 8.00067 11.999 8C11.857 7.99933 11.7383 8.04733 11.643 8.144C11.5477 8.24067 11.5 8.35933 11.5 8.5V12H8C7.858 12 7.73933 12.048 7.644 12.144C7.54867 12.24 7.50067 12.359 7.5 12.501C7.49933 12.643 7.54733 12.7617 7.644 12.857C7.74067 12.9523 7.85933 13 8 13H11.5ZM12.003 21.5C10.7583 21.5 9.58833 21.264 8.493 20.792C7.39767 20.3193 6.44467 19.678 5.634 18.868C4.82333 18.058 4.18167 17.106 3.709 16.012C3.23633 14.918 3 13.7483 3 12.503C3 11.2577 3.23633 10.0877 3.709 8.993C4.181 7.89767 4.82133 6.94467 5.63 6.134C6.43867 5.32333 7.391 4.68167 8.487 4.209C9.583 3.73633 10.753 3.5 11.997 3.5C13.241 3.5 14.411 3.73633 15.507 4.209C16.6023 4.681 17.5553 5.32167 18.366 6.131C19.1767 6.94033 19.8183 7.89267 20.291 8.988C20.7637 10.0833 21 11.253 21 12.497C21 13.741 20.764 14.911 20.292 16.007C19.82 17.103 19.1787 18.056 18.368 18.866C17.5573 19.676 16.6053 20.3177 15.512 20.791C14.4187 21.2643 13.249 21.5007 12.003 21.5ZM12 20.5C14.2333 20.5 16.125 19.725 17.675 18.175C19.225 16.625 20 14.7333 20 12.5C20 10.2667 19.225 8.375 17.675 6.825C16.125 5.275 14.2333 4.5 12 4.5C9.76667 4.5 7.875 5.275 6.325 6.825C4.775 8.375 4 10.2667 4 12.5C4 14.7333 4.775 16.625 6.325 18.175C7.875 19.725 9.76667 20.5 12 20.5Z" fill="#CCCCFF"/>
</g>
</svg>
