<svg width="44" height="45" viewBox="0 0 44 45" fill="none" xmlns="http://www.w3.org/2000/svg">
<g id="material-symbols-light:play-arrow-rounded">
<rect y="0.5" width="44" height="44" rx="22" fill="#CCCCFF"/>
<path id="vector" d="M16.5 29.3089V15.6928C16.5 15.243 16.6491 14.8836 16.9473 14.6148C17.2443 14.3459 17.5914 14.2114 17.9887 14.2114C18.1133 14.2114 18.2435 14.2285 18.3792 14.2628C18.5136 14.2958 18.6426 14.3465 18.766 14.4149L29.4782 21.2588C29.7055 21.4176 29.8766 21.5998 29.9915 21.8051C30.1052 22.0092 30.162 22.2408 30.162 22.4999C30.162 22.759 30.1052 22.9906 29.9915 23.1948C29.8778 23.3989 29.7067 23.581 29.4782 23.7411L18.766 30.5849C18.6426 30.6521 18.5124 30.7029 18.3755 30.7371C18.2386 30.7713 18.1084 30.7884 17.985 30.7884C17.5866 30.7884 17.2394 30.654 16.9437 30.3851C16.6479 30.1162 16.5 29.7575 16.5 29.3089Z" fill="#00010D"/>
</g>
</svg>
